<?xml version="1.0" standalone="no"?><!DOCTYPE svg PUBLIC "-//W3C//DTD SVG 1.1//EN" "http://www.w3.org/Graphics/SVG/1.1/DTD/svg11.dtd"><svg t="1738826783236" class="icon" viewBox="0 0 1024 1024" version="1.1" xmlns="http://www.w3.org/2000/svg" p-id="22105" xmlns:xlink="http://www.w3.org/1999/xlink" width="200" height="200"><path d="M1004.8 486.4V512h-179.2v-25.6c0-12.8 12.8-25.6 25.6-25.6h128c12.8 0 25.6 12.8 25.6 25.6z m-153.6 211.2h153.6v32c0 12.8-12.8 25.6-25.6 25.6h-128c-12.8 0-25.6-12.8-25.6-25.6v-32h25.6z" fill="#ECEBED" p-id="22106"></path><path d="M825.6 512h179.2v185.6h-179.2zM518.4 473.6v320H19.2v-320c0-12.8 12.8-25.6 25.6-25.6h441.6c19.2-6.4 32 6.4 32 25.6z" fill="#27B5F7" p-id="22107"></path><path d="M428.8 640v38.4c0 12.8-6.4 25.6-19.2 32l-134.4 57.6c-25.6 12.8-44.8 44.8-44.8 76.8v160h569.6v-160c0-32-19.2-64-44.8-76.8l-134.4-57.6c-12.8-6.4-19.2-19.2-19.2-32V640H428.8z" fill="#FEBBA0" p-id="22108"></path><path d="M748.8 768l-134.4-57.6c-12.8-6.4-19.2-12.8-19.2-25.6v25.6c0 44.8-38.4 83.2-83.2 83.2-44.8 0-83.2-38.4-83.2-83.2v-25.6c0 12.8-6.4 19.2-19.2 25.6l-134.4 57.6c-25.6 12.8-44.8 44.8-44.8 76.8v160h569.6v-160c0-32-19.2-64-51.2-76.8z" fill="#89CD37" p-id="22109"></path><path d="M697.6 396.8v-64c0-102.4-83.2-185.6-185.6-185.6s-185.6 89.6-185.6 192v64c-25.6-6.4-51.2 19.2-51.2 44.8 0 25.6 19.2 44.8 44.8 44.8v32c0 32 19.2 57.6 38.4 70.4l115.2 64c25.6 12.8 51.2 12.8 70.4 0l115.2-64c19.2-12.8 38.4-38.4 38.4-70.4v-32c25.6 0 44.8-19.2 44.8-44.8 6.4-25.6-19.2-51.2-44.8-51.2z" fill="#FEBBA0" p-id="22110"></path><path d="M691.2 140.8c-38.4-44.8-70.4-57.6-102.4-38.4-19.2-25.6-51.2-38.4-108.8-38.4-121.6 0-192 96-192 179.2 0 89.6 38.4 147.2 38.4 147.2s12.8-96 108.8-96c64 0 102.4-25.6 128-57.6 12.8 32 64 38.4 83.2 57.6 44.8 38.4 57.6 64 57.6 64s64-121.6-12.8-217.6z" fill="#703E41" p-id="22111"></path><path d="M224 544c-12.8 0-19.2-6.4-19.2-19.2 0-12.8 6.4-19.2 19.2-19.2 12.8 0 19.2 6.4 19.2 19.2 6.4 6.4-6.4 19.2-19.2 19.2z m-64 0h-57.6c-12.8 0-19.2-6.4-19.2-19.2 0-12.8 6.4-19.2 19.2-19.2h57.6c12.8 0 19.2 6.4 19.2 19.2 0 6.4-6.4 19.2-19.2 19.2z m108.8 121.6H102.4c-12.8 0-19.2-6.4-19.2-19.2 0-12.8 6.4-19.2 19.2-19.2h166.4c12.8 0 19.2 6.4 19.2 19.2 0 6.4-6.4 19.2-19.2 19.2z m-44.8-64c-12.8 0-19.2-6.4-19.2-19.2 0-12.8 6.4-19.2 19.2-19.2 12.8 0 19.2 6.4 19.2 19.2 6.4 12.8-6.4 19.2-19.2 19.2z m-64 0h-57.6c-12.8 0-19.2-6.4-19.2-19.2s6.4-19.2 19.2-19.2h57.6c12.8 0 19.2 6.4 19.2 19.2 0 12.8-6.4 19.2-19.2 19.2z m128 0c-12.8 0-25.6-6.4-25.6-19.2s6.4-19.2 19.2-19.2c12.8 0 19.2 6.4 19.2 19.2 12.8 12.8 0 19.2-12.8 19.2zM19.2 1024c-12.8 0-19.2-6.4-19.2-19.2 0-12.8 6.4-19.2 19.2-19.2 12.8 0 19.2 6.4 19.2 19.2 6.4 12.8-6.4 19.2-19.2 19.2z m985.6 0c-12.8 0-19.2-6.4-19.2-19.2 0-12.8 6.4-19.2 19.2-19.2 12.8 0 19.2 6.4 19.2 19.2 0 12.8-6.4 19.2-19.2 19.2zM588.8 473.6c-12.8 0-25.6-12.8-25.6-25.6s12.8-25.6 25.6-25.6 25.6 12.8 25.6 25.6-12.8 25.6-25.6 25.6z m-153.6 0c-12.8 0-25.6-12.8-25.6-25.6s12.8-25.6 25.6-25.6 25.6 12.8 25.6 25.6-12.8 25.6-25.6 25.6zM512 582.4c-25.6 0-38.4-19.2-38.4-38.4 0-12.8 6.4-19.2 19.2-19.2h38.4c12.8 0 19.2 6.4 19.2 19.2 0 19.2-12.8 38.4-38.4 38.4zM448 960c-6.4 0-12.8 0-12.8-6.4l-51.2-51.2c-6.4-6.4-6.4-19.2 0-32l44.8-44.8c6.4-6.4 19.2-6.4 32 0 6.4 6.4 6.4 19.2 0 32l-32 32 32 32c6.4 6.4 6.4 19.2 0 32-6.4 0-12.8 6.4-12.8 6.4z m128 0c-6.4 0-12.8 0-12.8-6.4-6.4-6.4-6.4-19.2 0-32l32-32-32-32c-6.4-6.4-6.4-19.2 0-32 6.4-6.4 19.2-6.4 32 0l44.8 44.8c6.4 6.4 6.4 19.2 0 32l-44.8 44.8c-6.4 6.4-12.8 12.8-19.2 12.8z m-70.4 0s-6.4 0 0 0c-12.8 0-25.6-12.8-19.2-25.6l19.2-96c0-12.8 12.8-19.2 25.6-19.2s19.2 12.8 19.2 25.6l-19.2 96c-6.4 12.8-19.2 19.2-25.6 19.2zM166.4 294.4c-32 0-64-25.6-64-64V192c0-32 25.6-64 64-64s64 25.6 64 64v38.4c-6.4 38.4-32 64-64 64z m0-121.6c-12.8 0-25.6 6.4-25.6 19.2v38.4c0 12.8 12.8 25.6 25.6 25.6s19.2-6.4 19.2-19.2V192c0-12.8-12.8-19.2-19.2-19.2zM64 294.4c-12.8 0-19.2-6.4-19.2-19.2V198.4l-6.4 6.4c-6.4 6.4-19.2 6.4-32 0-6.4-6.4-6.4-19.2 0-25.6l44.8-44.8C57.6 128 64 128 70.4 128c6.4 6.4 12.8 12.8 12.8 19.2v128c0 12.8-6.4 19.2-19.2 19.2z m800-128c-32 0-64-25.6-64-64V64c0-32 25.6-64 64-64s64 25.6 64 64v38.4c-6.4 38.4-32 64-64 64z m0-121.6c-12.8 0-19.2 6.4-19.2 19.2v38.4c0 12.8 6.4 19.2 19.2 19.2s19.2-6.4 19.2-19.2V64c0-12.8-12.8-19.2-19.2-19.2z m140.8 121.6c-12.8 0-19.2-6.4-19.2-19.2V70.4l-6.4 6.4c-6.4 6.4-19.2 6.4-32 0-6.4-6.4-6.4-19.2 0-32l44.8-44.8h19.2c6.4 6.4 12.8 12.8 12.8 19.2v128c0 12.8-6.4 19.2-19.2 19.2z m-25.6 275.2h-128c-25.6 0-44.8 19.2-44.8 44.8v243.2c0 25.6 19.2 44.8 44.8 44.8h128c25.6 0 44.8-19.2 44.8-44.8V486.4c0-25.6-19.2-44.8-44.8-44.8z m-134.4 89.6h140.8v140.8h-140.8V531.2z m0-44.8s0-6.4 0 0l134.4-6.4s6.4 0 6.4 6.4v6.4l-140.8-6.4z m134.4 243.2s0 6.4 0 0l-134.4 6.4s-6.4 0-6.4-6.4v-12.8h140.8v12.8z" fill="" p-id="22112"></path><path d="M934.4 979.2h-115.2v-140.8c0-38.4-25.6-76.8-57.6-96l-134.4-57.6c-6.4 0-6.4-6.4-6.4-12.8V640l57.6-32c25.6-19.2 44.8-51.2 51.2-83.2V512c19.2-12.8 38.4-38.4 38.4-64s-19.2-57.6-44.8-64v-12.8c12.8-25.6 64-147.2-12.8-243.2-32-44.8-76.8-64-115.2-51.2C563.2 51.2 524.8 38.4 480 38.4 345.6 38.4 268.8 140.8 268.8 236.8c0 64 19.2 115.2 32 140.8-19.2 12.8-32 25.6-38.4 44.8H44.8c-25.6 0-44.8 19.2-44.8 51.2v320c0 12.8 6.4 19.2 19.2 19.2h115.2v44.8h-12.8c-12.8 0-19.2 6.4-19.2 19.2s6.4 19.2 19.2 19.2h83.2v83.2H89.6c-12.8 0-19.2 6.4-19.2 19.2s6.4 25.6 19.2 25.6h844.8c12.8 0 19.2-6.4 19.2-19.2 0-12.8-6.4-25.6-19.2-25.6zM723.2 448c0 12.8-12.8 25.6-25.6 25.6s-19.2 6.4-19.2 19.2v32c0 19.2-12.8 44.8-32 51.2l-115.2 64c-12.8 12.8-32 12.8-51.2 0L371.2 576c-12.8-6.4-25.6-25.6-25.6-51.2v-32c0-12.8-6.4-19.2-19.2-19.2-19.2 0-25.6-12.8-25.6-25.6s6.4-25.6 19.2-25.6l25.6 12.8v19.2c0 44.8 38.4 89.6 89.6 89.6 38.4 0 76.8-32 83.2-70.4 6.4 38.4 44.8 70.4 83.2 70.4 44.8 0 89.6-38.4 89.6-89.6v-19.2l12.8-12.8c12.8 0 19.2 12.8 19.2 25.6zM576 672v38.4c0 32-25.6 64-64 64-32 0-64-25.6-64-64v-38.4l12.8 6.4c12.8 6.4 32 12.8 44.8 12.8 19.2 0 32-6.4 44.8-12.8l25.6-6.4z m19.2-307.2c-38.4 0-76.8 25.6-83.2 64-6.4-38.4-44.8-64-83.2-64-25.6 0-51.2 12.8-64 32L345.6 384c6.4-19.2 25.6-70.4 83.2-70.4 51.2 0 89.6-12.8 121.6-44.8 12.8 12.8 32 19.2 44.8 25.6 12.8 6.4 25.6 12.8 32 19.2 32 25.6 44.8 44.8 51.2 57.6V384l-19.2 6.4c-12.8-12.8-38.4-25.6-64-25.6zM640 448c0 25.6-19.2 44.8-44.8 44.8-25.6 0-44.8-19.2-44.8-44.8 0-25.6 19.2-44.8 44.8-44.8 25.6 0 44.8 19.2 44.8 44.8zM473.6 448c0 25.6-19.2 44.8-44.8 44.8-25.6 0-44.8-19.2-44.8-44.8 0-25.6 19.2-44.8 44.8-44.8 25.6 0 44.8 19.2 44.8 44.8z m6.4-364.8c51.2 0 83.2 19.2 96 32 6.4 6.4 12.8 6.4 25.6 0 19.2-12.8 51.2 0 76.8 38.4 44.8 57.6 32 128 19.2 166.4-6.4-12.8-19.2-25.6-38.4-38.4-12.8-6.4-25.6-12.8-38.4-25.6-19.2 0-38.4-12.8-44.8-25.6 0-6.4-6.4-12.8-12.8-12.8s-12.8 0-19.2 6.4c-32 32-64 51.2-115.2 51.2-57.6 0-89.6 32-108.8 57.6v6.4c-6.4-25.6-12.8-57.6-12.8-96 0-83.2 64-160 172.8-160zM204.8 838.4v12.8h-25.6v-44.8h25.6v32z m25.6-70.4h-192V473.6c0-6.4 0-6.4 6.4-6.4H256c6.4 19.2 25.6 38.4 44.8 44.8v19.2c0 38.4 19.2 70.4 44.8 83.2l57.6 32v32c0 6.4 0 12.8-6.4 12.8l-134.4 57.6c-12.8 0-19.2 12.8-32 19.2z m544 211.2H249.6v-140.8c0-25.6 12.8-44.8 32-57.6l128-51.2c12.8 44.8 51.2 83.2 102.4 83.2s89.6-38.4 102.4-83.2l128 51.2c19.2 6.4 32 32 32 57.6v140.8z" fill="" p-id="22113"></path></svg>