<?xml version="1.0" standalone="no"?><!DOCTYPE svg PUBLIC "-//W3C//DTD SVG 1.1//EN" "http://www.w3.org/Graphics/SVG/1.1/DTD/svg11.dtd"><svg t="1741332043751" class="icon" viewBox="0 0 1156 1024" version="1.1" xmlns="http://www.w3.org/2000/svg" p-id="25940" xmlns:xlink="http://www.w3.org/1999/xlink" width="225.78125" height="200"><path d="M1036.576981 977.245915c-16.865684 0-33.032647-6.710133-44.959094-18.672722a63.81252 63.81252 0 0 1-18.612487-45.05547V110.711168C972.872884 49.512829 923.360055 0 862.318326 0H252.443148C239.432477 0 228.891425 10.565146 228.891425 23.611958v420.160327c0 13.034764 10.541052 23.611958 23.551723 23.611958 71.04067 0 128.673121 57.656545 128.805637 128.877919v70.811778a23.624004 23.624004 0 0 0 27.08147 23.371019c3.04787-0.228891 6.119834-0.228891 9.179751 0a58.945565 58.945565 0 0 1 58.873284 59.017847 224.325643 224.325643 0 0 1-117.746568 196.858673 23.636051 23.636051 0 0 0-10.11941 30.454606c3.312902 7.432948 5.071752 15.468242 5.180174 23.611957 0 13.034764 10.541052 23.599911 23.539676 23.599911h659.339819c13.01067 0 23.551723-10.565146 23.551723-23.611957 0-13.034764-10.541052-23.599911-23.551723-23.599911v0.481877z" fill="#E6EFFF" opacity=".701" p-id="25941"></path><path d="M1046.660251 974.896766a64.414866 64.414866 0 0 1-64.390772-64.354631V99.989412a111.000294 111.000294 0 0 0-9.30022-44.332655l-23.852896 4.059811A87.051023 87.051023 0 0 0 871.377607 12.046917h-88.243667v120.348702a78.003788 78.003788 0 0 1 58.825096 27.165798 77.895366 77.895366 0 0 1 17.974 62.21028c-27.189892 182.089152-123.541135 587.479959-449.542758 687.336855a223.446218 223.446218 0 0 1-47.693745 34.803543 23.828802 23.828802 0 0 0-11.203633 31.213562c3.541794 7.866637 5.324737 16.407901 5.240409 25.033494 0 13.155233 10.673569 23.828802 23.852896 23.828802H1048.322726a23.840849 23.840849 0 1 0 0-47.669651l-1.662475-1.421536z" fill="#D4E4FF" opacity=".701" p-id="25942"></path><path d="M951.706451 783.049611v119.372902C951.706451 949.59824 992.159998 987.847202 1042.058329 987.847202c49.898331 0 90.351878-38.248962 90.351878-85.424689V783.049611H951.706451z" fill="#B1CDFF" opacity=".701" p-id="25943"></path><path d="M168.656839 109.289632V228.891425h611.381043V109.289632C780.158351 62.198233 819.23855 24.093834 867.378031 24.093834H255.996988C207.857508 24.093834 168.777309 62.198233 168.656839 109.289632z" fill="#FFDEAD" opacity=".701" p-id="25944"></path><path d="M867.378031 12.046917c-23.25055 0-45.537347 9.565252-61.921154 26.575499a91.664992 91.664992 0 0 0-25.418995 64.065505V228.891425H168.656839V102.687921c0.120469-49.693533 39.200668-89.906142 87.340149-89.906142L867.378031 12.046917z" fill="#C2D8FF" opacity=".701" p-id="25945"></path><path d="M433.399889 409.595181h205.375843C651.930966 409.595181 662.58044 398.81319 662.58044 385.501347s-10.649475-24.093834-23.804708-24.093834H433.399889C420.244656 361.407513 409.595181 372.189504 409.595181 385.501347s10.649475 24.093834 23.804708 24.093834zM771.002694 758.955777h-84.32842a24.093834 24.093834 0 1 0 0 48.187668h84.32842a24.093834 24.093834 0 1 0 0-48.187668zM444.989024 542.111269h326.760579c12.890201 0 23.346925-10.781991 23.346925-24.093834s-10.444677-24.093834-23.346925-24.093834H445.001071c-12.890201 0-23.346925 10.781991-23.346926 24.093834s10.444677 24.093834 23.346926 24.093834zM444.989024 674.627357h326.760579c12.890201 0 23.346925-10.781991 23.346925-24.093834s-10.444677-24.093834-23.346925-24.093834H445.001071c-12.890201 0-23.346925 10.781991-23.346926 24.093834s10.444677 24.093834 23.346926 24.093834z" fill="#1166FF" opacity=".701" p-id="25946"></path><path d="M1132.109034 771.532758H980.54677V110.891872c-0.120469-61.198339-49.886284-110.759356-111.313514-110.891872H255.876519C194.449289 0.120469 144.695521 49.70558 144.563005 110.891872V233.107846c0 13.034764 10.601287 23.599911 23.684239 23.59991h63.945036v188.751097c0 13.034764 10.601287 23.587864 23.672192 23.587864a23.636051 23.636051 0 0 0 23.684239-23.587864V256.707756h502.067317a23.636051 23.636051 0 0 0 23.684239-23.59991V110.891872c0-35.176998 28.623475-63.704098 63.932989-63.704098 35.321561 0 63.945036 28.5271 63.945036 63.704098v802.204209a110.132916 110.132916 0 0 0 20.130398 63.704098H382.09207a23.636051 23.636051 0 0 0-23.68424 23.587863c0 13.034764 10.601287 23.599911 23.68424 23.599911h663.110504c61.415183-0.120469 111.168951-49.70558 111.301467-110.891872v-117.975459c0-6.384866-2.590087-12.492653-7.179962-16.937965a23.732427 23.732427 0 0 0-17.215045-6.649899zM757.931789 110.891872v98.62811H191.931483V110.891872c0.120469-35.12881 28.671663-63.571582 63.932989-63.704098h521.017118a111.771297 111.771297 0 0 0-18.949801 63.704098z m286.560017 866.847966c-35.321561 0-63.945036-28.515053-63.945036-63.704097v-95.315208h127.878025v94.375548a63.583628 63.583628 0 0 1-18.636581 45.200033 64.065505 64.065505 0 0 1-45.296408 18.745003v0.698721z" fill="#1166FF" opacity=".701" p-id="25947"></path><path d="M505.970518 737.994141C505.970518 595.129751 392.705403 481.876684 249.853061 481.876684 113.277161 481.876684 0 595.141798 0 737.994141 0 874.57004 113.265115 987.847202 249.853061 987.847202 392.71745 987.847202 505.970518 874.582087 505.970518 737.994141z" fill="#35CC6F" p-id="25948"></path><path d="M367.5153 675.265844L228.048141 823.503159c-0.216845 0.240938-0.277079 0.530064-0.518018 0.771002-7.914825 8.432842-19.913554 9.336361-26.756203 2.023883l-1.457677-1.554053c-0.204798-0.192751-0.481877-0.252985-0.674627-0.46983-0.204798-0.192751-0.265032-0.481877-0.445736-0.686674l-61.053776-64.920836c-6.866743-7.276338-6.023459-20.034023 1.91546-28.430724 7.902778-8.432842 19.877413-9.336361 26.744156-2.035929l47.296196 50.271785 125.745721-133.672592a19.407583 19.407583 0 0 1 28.659616 0c7.914825 8.408748 7.914825 22.045858 0 30.4787" fill="#FFFFFF" p-id="25949"></path></svg>